<?xml version="1.0" encoding="UTF-8"?>
<svg id="_レイヤー_1" data-name="レイヤー 1" xmlns="http://www.w3.org/2000/svg" version="1.1" viewBox="0 0 512 512">
  <defs>
    <style>
      .cls-1 {
        fill: #9a93c3;
      }

      .cls-1, .cls-2 {
        stroke-width: 0px;
      }

      .cls-3 {
        stroke: #fff;
        stroke-width: 14px;
      }

      .cls-3, .cls-4 {
        fill: none;
        stroke-miterlimit: 10;
      }

      .cls-4 {
        stroke: #9a93c3;
        stroke-width: 9px;
      }

      .cls-2 {
        fill: #fff;
      }
    </style>
  </defs>
  <g>
    <g>
      <path class="cls-2" d="M256,256h-49.24s1.24-29-28.76-29c-28,0-28,29-28,29h-58v-114.69c0-27.23,22.07-49.31,49.31-49.31h114.69"/>
      <path class="cls-2" d="M256,256v-49.24s29,1.24,29-28.76c0-28-29-28-29-28v-58h114.69c27.23,0,49.31,22.07,49.31,49.31v114.69"/>
    </g>
    <g>
      <path class="cls-2" d="M256,256h49.24s-1.24,29,28.76,29c28,0,28-29,28-29h58v114.69c0,27.23-22.07,49.31-49.31,49.31h-114.69"/>
      <path class="cls-2" d="M256,256v49.24s-29-1.24-29,28.76c0,28,29,28,29,28v58h-114.69c-27.23,0-49.31-22.07-49.31-49.31v-114.69"/>
    </g>
  </g>
  <g>
    <g>
      <path class="cls-4" d="M256,256h-49.24s1.24-29-28.76-29c-28,0-28,29-28,29h-58v-114.69c0-27.23,22.07-49.31,49.31-49.31h114.69"/>
      <path class="cls-4" d="M256,256v-49.24s29,1.24,29-28.76c0-28-29-28-29-28v-58h114.69c27.23,0,49.31,22.07,49.31,49.31v114.69"/>
    </g>
    <g>
      <path class="cls-4" d="M256,256h49.24s-1.24,29,28.76,29c28,0,28-29,28-29h58v114.69c0,27.23-22.07,49.31-49.31,49.31h-114.69"/>
      <path class="cls-4" d="M256,256v49.24s-29-1.24-29,28.76c0,28,29,28,29,28v58h-114.69c-27.23,0-49.31-22.07-49.31-49.31v-114.69"/>
    </g>
  </g>
  <circle class="cls-1" cx="177.5" cy="160.5" r="46.5"/>
  <polyline class="cls-3" points="150 158 174 180 201 135"/>
</svg>