<?xml version="1.0" encoding="UTF-8"?>
<svg id="_レイヤー_1" data-name="レイヤー 1" xmlns="http://www.w3.org/2000/svg" version="1.1" viewBox="0 0 512 512">
  <defs>
    <style>
      .cls-1 {
        fill: #9a93c3;
        stroke-width: 0px;
      }

      .cls-2, .cls-3, .cls-4 {
        fill: none;
        stroke: #9a93c3;
        stroke-miterlimit: 10;
      }

      .cls-2, .cls-4 {
        stroke-width: 10px;
      }

      .cls-3 {
        stroke-width: 18px;
      }

      .cls-4 {
        fill-rule: evenodd;
      }
    </style>
  </defs>
  <path class="cls-1" d="M393.43,122.28c11.66,0,21.14,9.48,21.14,21.14v225.17c0,11.66-9.48,21.14-21.14,21.14H118.57c-11.66,0-21.14-9.48-21.14-21.14v-225.17c0-11.66,9.48-21.14,21.14-21.14h274.85M393.43,112.28H118.57c-17.13,0-31.14,14.01-31.14,31.14v225.17c0,17.13,14.01,31.14,31.14,31.14h274.85c17.13,0,31.14-14.01,31.14-31.14v-225.17c0-17.13-14.01-31.14-31.14-31.14h0Z"/>
  <line class="cls-2" x1="105.18" y1="174.97" x2="406.82" y2="174.97"/>
  <line class="cls-2" x1="216.37" y1="145.4" x2="386.71" y2="145.4"/>
  <line class="cls-2" x1="124.11" y1="145.4" x2="133.57" y2="145.4"/>
  <line class="cls-2" x1="151.31" y1="145.4" x2="160.78" y2="145.4"/>
  <line class="cls-2" x1="178.52" y1="145.4" x2="187.98" y2="145.4"/>
  <g>
    <line class="cls-2" x1="360.9" y1="214.93" x2="146.9" y2="323.83"/>
    <polyline class="cls-4" points="324.79 211.04 360.9 214.93 343.2 246.84"/>
  </g>
  <path class="cls-1" d="M153.94,394.78h38v-33c0-6.6-5.4-12-12-12h-14c-6.6,0-12,5.4-12,12v33Z"/>
  <path class="cls-1" d="M249.94,394.78h-38v-59c0-6.6,5.4-12,12-12h14c6.6,0,12,5.4,12,12v59Z"/>
  <path class="cls-1" d="M307.94,393.78h-38v-84c0-6.6,5.4-12,12-12h14c6.6,0,12,5.4,12,12v84Z"/>
  <path class="cls-1" d="M365.94,394.78h-38v-111c0-6.6,5.4-12,12-12h14c6.6,0,12,5.4,12,12v111Z"/>
  <g>
    <circle class="cls-3" cx="178.71" cy="235" r="22.87"/>
    <polygon class="cls-1" points="185.57 205.25 170.57 205.25 174.37 194.78 181.77 194.78 185.57 205.25"/>
    <polygon class="cls-1" points="185.57 264.38 170.57 264.38 174.37 274.85 181.77 274.85 185.57 264.38"/>
    <polygon class="cls-1" points="149.34 227.32 149.34 242.31 138.87 238.51 138.87 231.11 149.34 227.32"/>
    <polygon class="cls-1" points="208.47 227.32 208.47 242.31 218.94 238.51 218.94 231.11 208.47 227.32"/>
    <polygon class="cls-1" points="152.7 250.42 163.3 261.02 153.21 265.74 147.98 260.5 152.7 250.42"/>
    <polygon class="cls-1" points="194.51 208.61 205.11 219.21 209.83 209.12 204.59 203.89 194.51 208.61"/>
    <polygon class="cls-1" points="194.51 261.02 205.11 250.42 209.83 260.5 204.59 265.74 194.51 261.02"/>
    <polygon class="cls-1" points="152.7 219.21 163.3 208.61 153.21 203.89 147.98 209.12 152.7 219.21"/>
  </g>
</svg>