<?xml version="1.0" encoding="UTF-8"?>
<svg id="_レイヤー_1" data-name="レイヤー 1" xmlns="http://www.w3.org/2000/svg" version="1.1" viewBox="0 0 512 512">
  <defs>
    <style>
      .cls-1, .cls-2 {
        fill: #9a93c3;
        stroke-width: 0px;
      }

      .cls-3, .cls-4 {
        fill: none;
        stroke: #9a93c3;
        stroke-miterlimit: 10;
        stroke-width: 10px;
      }

      .cls-2, .cls-4 {
        fill-rule: evenodd;
      }
    </style>
  </defs>
  <path class="cls-1" d="M393.43,96.25c11.66,0,21.14,9.48,21.14,21.14v225.17c0,11.66-9.48,21.14-21.14,21.14H118.57c-11.66,0-21.14-9.48-21.14-21.14V117.39c0-11.66,9.48-21.14,21.14-21.14h274.85M393.43,86.25H118.57c-17.13,0-31.14,14.01-31.14,31.14v225.17c0,17.13,14.01,31.14,31.14,31.14h274.85c17.13,0,31.14-14.01,31.14-31.14V117.39c0-17.13-14.01-31.14-31.14-31.14h0Z"/>
  <line class="cls-3" x1="105.18" y1="148.94" x2="406.82" y2="148.94"/>
  <line class="cls-3" x1="216.37" y1="119.37" x2="386.71" y2="119.37"/>
  <line class="cls-3" x1="124.11" y1="119.37" x2="133.57" y2="119.37"/>
  <line class="cls-3" x1="151.31" y1="119.37" x2="160.78" y2="119.37"/>
  <line class="cls-3" x1="178.52" y1="119.37" x2="187.98" y2="119.37"/>
  <g>
    <line class="cls-3" x1="210.71" y1="177.52" x2="116.76" y2="340.56"/>
    <polyline class="cls-4" points="178.33 193.97 210.71 177.52 213.3 213.92"/>
  </g>
  <circle class="cls-3" cx="306.69" cy="265.53" r="75.03"/>
  <g>
    <path class="cls-2" d="M300.9,420.75c-5.57,0-10.11-4.53-10.11-10.11v-67.91h31.78v67.91c0,5.57-4.53,10.11-10.11,10.11h-11.56Z"/>
    <path class="cls-1" d="M317.58,347.73v62.91c0,2.77-2.34,5.11-5.11,5.11h-11.56c-2.77,0-5.11-2.34-5.11-5.11v-62.91h21.78M324.32,337.73h-36.72c-.99,0-1.81.81-1.81,1.81v71.1c0,8.31,6.8,15.11,15.11,15.11h11.56c8.31,0,15.11-6.8,15.11-15.11v-69.65c0-1.79-1.47-3.26-3.26-3.26h0Z"/>
  </g>
</svg>